<?xml version="1.0" standalone="no"?>
<!DOCTYPE svg PUBLIC "-//W3C//DTD SVG 20010904//EN"
 "http://www.w3.org/TR/2001/REC-SVG-20010904/DTD/svg10.dtd">
<svg version="1.0" xmlns="http://www.w3.org/2000/svg"
 width="512.000000pt" height="512.000000pt" viewBox="0 0 512.000000 512.000000"
 preserveAspectRatio="xMidYMid meet">

<g transform="translate(0.000000,512.000000) scale(0.100000,-0.100000)"
fill="#000000" stroke="none">
<path d="M2370 4809 c-155 -13 -400 -59 -400 -76 0 -4 -21 -152 -46 -329 l-45
-323 62 -61 c47 -46 68 -60 83 -56 12 3 305 94 652 203 l632 198 6 55 c7 60
41 141 81 194 l26 34 -83 30 c-323 117 -631 158 -968 131z"/>
<path d="M1560 4582 c-466 -237 -811 -586 -1037 -1050 -30 -62 -53 -116 -50
-119 3 -3 190 64 415 148 l409 153 6 60 c3 34 13 81 22 106 35 101 133 195
235 227 30 9 58 19 62 22 3 3 21 105 38 226 17 121 33 235 37 253 4 23 1 32
-9 32 -7 0 -65 -26 -128 -58z"/>
<path d="M3583 4530 c-72 -44 -96 -164 -48 -246 35 -60 84 -87 154 -87 33 0
69 7 89 17 41 21 88 85 97 133 6 34 4 40 -24 63 -33 28 -216 140 -228 140 -5
0 -22 -9 -40 -20z"/>
<path d="M4031 4215 c-12 -34 -95 -127 -138 -156 l-21 -14 87 -806 c48 -443
91 -811 95 -817 4 -7 13 -12 20 -12 7 0 40 -18 73 -39 l61 -39 298 185 c165
102 301 187 303 189 3 2 -1 53 -8 112 -46 398 -200 782 -443 1107 -77 102
-286 325 -304 325 -6 0 -16 -16 -23 -35z"/>
<path d="M2731 3915 l-675 -211 -11 -44 c-15 -58 -39 -105 -80 -155 l-33 -41
129 -353 c70 -195 130 -355 132 -357 2 -2 28 -8 58 -14 147 -28 263 -138 300
-284 6 -25 12 -46 13 -46 51 -16 1042 -185 1045 -178 14 40 101 126 166 163
17 10 14 51 -64 770 -45 418 -84 779 -87 801 -5 38 -9 42 -47 54 -46 13 -74
29 -132 75 l-40 32 -674 -212z"/>
<path d="M1630 3928 c-19 -5 -49 -20 -66 -33 -94 -72 -82 -241 21 -305 43 -27
137 -30 182 -6 56 28 103 105 103 166 0 59 -47 138 -99 164 -38 20 -101 26
-141 14z"/>
<path d="M880 3286 l-514 -192 -13 -60 c-18 -87 -41 -265 -49 -376 l-6 -96 83
-6 c139 -11 1339 -76 1394 -76 l50 0 22 48 c12 26 40 67 63 92 l41 44 -127
352 -128 352 -45 7 c-75 10 -139 35 -187 71 -24 19 -50 34 -57 33 -6 0 -244
-87 -527 -193z"/>
<path d="M2104 2531 c-60 -27 -96 -80 -102 -146 -15 -181 197 -275 317 -139
135 153 -29 370 -215 285z"/>
<path d="M4560 2251 l-235 -148 -7 -74 c-7 -87 -26 -135 -80 -207 -45 -60
-106 -103 -182 -128 -28 -9 -52 -17 -53 -18 -2 -2 -273 -1041 -273 -1049 0
-12 177 113 270 191 434 363 713 862 795 1423 17 118 19 159 8 158 -5 0 -114
-67 -243 -148z"/>
<path d="M324 2248 c26 -212 102 -465 201 -673 81 -168 225 -388 333 -505 37
-40 43 -43 52 -28 86 141 204 204 366 196 l84 -4 272 434 c270 433 271 435
255 461 -9 14 -24 41 -34 59 -11 21 -24 32 -39 32 -12 0 -340 18 -729 40 -389
22 -721 40 -737 40 l-31 0 7 -52z"/>
<path d="M3864 2221 c-108 -50 -140 -198 -62 -287 42 -48 77 -64 140 -64 97 0
171 66 184 162 9 62 -29 142 -82 176 -51 33 -127 38 -180 13z"/>
<path d="M2463 2113 l-39 -48 267 -850 c147 -467 269 -858 272 -867 4 -15 11
-15 93 3 49 11 151 41 227 66 l137 45 15 52 c8 28 82 311 164 629 l150 578
-62 62 c-58 57 -107 136 -107 172 0 8 -3 15 -7 15 -5 0 -246 43 -538 95 -291
52 -530 95 -531 95 0 0 -19 -21 -41 -47z"/>
<path d="M1846 1530 l-288 -460 21 -43 c32 -68 44 -133 38 -203 -8 -79 -35
-144 -88 -206 l-40 -47 98 -49 c184 -92 384 -157 592 -193 137 -23 430 -42
488 -32 l41 8 -263 840 c-251 803 -264 840 -288 843 -22 3 -49 -36 -311 -458z"/>
<path d="M1205 1040 c-16 -3 -40 -12 -51 -18 -37 -20 -83 -80 -90 -118 -8 -41
-13 -36 143 -155 90 -68 93 -70 120 -55 38 19 69 54 88 98 18 44 19 69 5 120
-25 89 -125 149 -215 128z"/>
</g>
</svg>
