<?xml version="1.0" standalone="no"?>
<!DOCTYPE svg PUBLIC "-//W3C//DTD SVG 20010904//EN"
 "http://www.w3.org/TR/2001/REC-SVG-20010904/DTD/svg10.dtd">
<svg version="1.0" xmlns="http://www.w3.org/2000/svg"
 width="512.000000pt" height="512.000000pt" viewBox="0 0 512.000000 512.000000"
 preserveAspectRatio="xMidYMid meet">

<g transform="translate(0.000000,512.000000) scale(0.100000,-0.100000)"
fill="#000000" stroke="none">
<path d="M2600 4769 c0 -16 -30 -281 -35 -311 -4 -25 -1 -28 33 -33 76 -13
270 -68 352 -100 646 -249 1136 -870 1296 -1642 10 -46 21 -83 25 -83 5 0 72
14 149 30 77 17 142 30 144 30 2 0 -7 53 -21 117 -210 996 -885 1751 -1753
1961 -161 39 -190 44 -190 31z"/>
<path d="M1130 4328 c-83 -14 -120 -49 -316 -298 -206 -262 -248 -333 -266
-452 -21 -142 20 -470 87 -696 96 -322 267 -666 482 -969 317 -449 890 -993
1337 -1271 314 -196 583 -293 817 -295 98 -1 110 2 172 31 80 37 108 63 384
350 252 261 267 286 267 419 0 128 -21 160 -322 487 -282 306 -307 326 -411
326 -89 0 -137 -30 -326 -205 -185 -170 -233 -201 -297 -191 -77 13 -320 167
-485 308 -240 206 -466 499 -623 810 -62 123 -70 145 -70 195 0 77 18 110 160
293 169 216 175 229 175 360 0 99 -2 108 -30 157 -43 74 -527 597 -573 619
-49 24 -107 32 -162 22z"/>
<path d="M2585 3838 c-3 -18 -16 -95 -29 -170 l-23 -137 86 -26 c350 -110 653
-409 795 -786 11 -31 25 -57 29 -59 4 -1 70 24 146 55 l139 58 -18 51 c-142
405 -442 757 -798 935 -82 41 -274 111 -305 111 -10 0 -18 -12 -22 -32z"/>
</g>
</svg>
