<?xml version="1.0" standalone="no"?>
<!DOCTYPE svg PUBLIC "-//W3C//DTD SVG 20010904//EN"
 "http://www.w3.org/TR/2001/REC-SVG-20010904/DTD/svg10.dtd">
<svg version="1.0" xmlns="http://www.w3.org/2000/svg"
 width="512.000000pt" height="512.000000pt" viewBox="0 0 512.000000 512.000000"
 preserveAspectRatio="xMidYMid meet">

<g transform="translate(0.000000,512.000000) scale(0.100000,-0.100000)"
fill="#000000" stroke="none">
<path d="M773 4696 c-124 -30 -238 -116 -301 -226 -66 -115 -63 -13 -60 -1945
l3 -1750 24 -60 c51 -126 122 -205 238 -262 l77 -38 1015 -3 1016 -2 537 537
538 538 0 411 0 412 -87 7 c-251 21 -477 127 -645 303 -121 128 -206 277 -250
442 -20 73 -23 108 -23 255 1 201 16 271 94 430 153 311 473 530 809 552 50 3
92 9 92 14 0 4 -9 35 -19 68 -50 161 -194 289 -360 321 -84 16 -2631 12 -2698
-4z m1308 -711 c94 -61 133 -184 132 -410 0 -158 -25 -301 -93 -537 l-38 -133
35 -64 c52 -93 227 -322 329 -429 l89 -93 76 10 c41 6 175 15 297 22 245 13
346 6 450 -33 64 -24 135 -85 164 -142 25 -48 26 -121 4 -163 -24 -47 -89 -97
-152 -117 -84 -26 -233 -32 -318 -12 -144 34 -334 140 -491 273 l-70 59 -120
-22 c-114 -20 -282 -62 -549 -136 l-118 -33 -88 -137 c-119 -187 -290 -426
-358 -499 -70 -76 -162 -142 -244 -176 -86 -35 -204 -37 -265 -5 -94 49 -128
165 -80 265 34 68 129 181 211 248 84 70 277 174 443 240 l131 52 75 156 c42
86 104 226 140 311 68 166 207 542 207 563 0 7 -16 52 -35 101 -81 207 -117
379 -119 566 -1 170 27 241 114 288 40 21 54 23 123 19 63 -4 86 -11 118 -32z
m1054 -2985 c-143 -143 -263 -260 -267 -260 -5 0 -8 117 -8 260 l0 260 267 0
268 0 -260 -260z"/>
<path d="M1866 3900 c-70 -84 -75 -315 -10 -540 22 -78 66 -172 75 -163 10 11
74 256 93 362 30 160 14 321 -37 356 -12 8 -38 15 -58 15 -29 0 -43 -7 -63
-30z"/>
<path d="M2026 2755 c-13 -55 -135 -372 -195 -509 -58 -132 -59 -135 -33 -124
164 63 426 136 550 153 l52 7 -17 23 c-10 12 -58 72 -106 131 -74 91 -190 255
-233 329 -10 18 -11 17 -18 -10z"/>
<path d="M2758 2260 c-37 -5 -82 -12 -100 -15 l-32 -8 39 -34 c102 -87 272
-173 394 -199 90 -19 148 -17 198 5 49 23 73 62 73 122 0 34 -6 47 -33 73 -19
17 -51 38 -73 45 -47 16 -365 24 -466 11z"/>
<path d="M1289 1841 c-121 -47 -347 -199 -451 -302 -113 -113 -128 -189 -43
-225 47 -19 81 -18 132 7 95 46 241 215 357 413 83 140 83 137 5 107z"/>
<path d="M3750 4164 c-14 -2 -52 -9 -85 -15 -266 -48 -523 -265 -623 -527 -44
-113 -56 -183 -56 -317 -1 -142 18 -230 75 -353 103 -223 280 -382 517 -463
94 -32 102 -33 257 -34 186 0 238 11 381 80 178 86 313 221 399 398 69 144 80
196 80 382 -1 155 -2 163 -34 257 -80 233 -237 411 -454 514 -42 19 -109 44
-149 55 -70 18 -256 32 -308 23z m-91 -433 c8 -5 11 -16 8 -25 -5 -13 -24 -16
-107 -16 l-100 0 0 -100 c0 -83 -3 -102 -16 -107 -9 -3 -20 0 -25 8 -14 22
-11 223 3 237 14 14 215 17 237 3z m595 3 c13 -5 16 -26 16 -124 0 -120 -7
-143 -35 -120 -11 9 -15 36 -15 106 l0 94 -94 0 c-95 0 -113 7 -102 35 4 12
28 15 110 15 57 0 111 -3 120 -6z m-464 -289 c0 -10 -11 -15 -35 -15 -33 0
-35 -2 -35 -35 0 -24 -5 -35 -15 -35 -11 0 -15 11 -15 43 0 24 3 47 7 50 3 4
26 7 50 7 32 0 43 -4 43 -15z m200 -35 c0 -38 -4 -50 -15 -50 -10 0 -15 11
-15 35 0 33 -2 35 -35 35 -33 0 -43 8 -28 23 3 4 26 7 50 7 l43 0 0 -50z
m-270 -185 c0 -33 2 -35 35 -35 24 0 35 -5 35 -15 0 -11 -12 -15 -50 -15 l-50
0 0 43 c0 24 3 47 7 50 15 15 23 5 23 -28z m270 -15 l0 -50 -51 0 c-57 0 -66
23 -11 28 28 3 32 7 32 31 0 15 3 31 7 34 16 17 23 3 23 -43z m-530 -186 l0
-94 94 0 c70 0 97 -4 106 -15 23 -28 0 -35 -120 -35 -98 0 -119 3 -124 16 -11
29 -7 219 6 232 26 26 38 -7 38 -104z m808 -16 l-3 -123 -122 -3 c-116 -2
-123 -1 -123 17 0 26 18 31 116 31 l84 0 0 84 c0 98 5 116 31 116 18 0 19 -7
17 -122z"/>
</g>
</svg>
