<?xml version="1.0" standalone="no"?>
<!DOCTYPE svg PUBLIC "-//W3C//DTD SVG 20010904//EN"
 "http://www.w3.org/TR/2001/REC-SVG-20010904/DTD/svg10.dtd">
<svg version="1.0" xmlns="http://www.w3.org/2000/svg"
 width="512.000000pt" height="512.000000pt" viewBox="0 0 512.000000 512.000000"
 preserveAspectRatio="xMidYMid meet">

<g transform="translate(0.000000,512.000000) scale(0.100000,-0.100000)"
fill="#000000" stroke="none">
<path d="M2440 4833 c-266 -26 -444 -75 -645 -175 -528 -263 -873 -750 -951
-1338 -45 -346 43 -690 306 -1197 296 -569 817 -1293 1214 -1688 143 -143 170
-161 213 -150 39 9 297 272 462 470 621 746 1107 1586 1220 2106 29 137 35
228 22 373 -21 241 -70 425 -170 631 -222 460 -632 794 -1131 920 -165 42
-397 63 -540 48z m373 -767 c405 -120 679 -468 704 -891 11 -187 -27 -335
-145 -567 -128 -252 -282 -480 -500 -742 -116 -138 -298 -339 -313 -344 -5 -2
-9 130 -9 321 l0 324 -92 6 c-261 17 -516 160 -680 381 -246 332 -259 771 -33
1112 133 199 338 347 561 403 118 30 118 30 274 26 121 -2 160 -7 233 -29z"/>
</g>
</svg>
